<?xml version="1.0" encoding="UTF-8"?>
<svg id="Layer_1" data-name="Layer 1" xmlns="http://www.w3.org/2000/svg" viewBox="0 0 1513.17 550">
  <defs>
    <style>
      .cls-1 {
        fill: #666766;
      }

      .cls-1, .cls-2 {
        stroke: #666766;
        stroke-miterlimit: 10;
        stroke-width: 5px;
      }

      .cls-2 {
        fill: #335e6b;
      }

      .cls-3 {
        fill: #17aa9c;
      }

      .cls-4 {
        fill: #2e8089;
      }
    </style>
  </defs>
  <polyline class="cls-2" points="285.3 297.71 427.87 543.3 605.95 291.99"/>
  <circle class="cls-4" cx="284.25" cy="278.17" r="184.12"/>
  <polygon class="cls-3" points="120.05 13.03 26.05 543.3 427.87 543.3 120.05 13.03"/>
  <g>
    <path class="cls-1" d="M820.08,222.89c29.28,12.39,38.29,42.05,37.92,65.7-1.13,54.82-36.42,70.96-82.6,70.96h-96.86V93.74h97.24c39.05,0,69.46,22.53,69.46,64.58,0,22.53-8.26,42.8-26.66,53.69l-11.64,6.38,13.14,4.5ZM775.78,214.25c34.92,0,60.45-17.27,60.45-55.57s-26.66-56.32-60.45-56.32h-87.85v111.88h87.85ZM775.78,350.54c42.42.75,72.83-16.14,72.83-62.32s-28.16-65.33-72.83-64.95h-87.85v127.27h87.85Z"/>
    <path class="cls-1" d="M975.14,359.55h-9.39v-105.5l-90.86-160.31h11.26l84.47,149.8,87.1-149.8h11.64l-94.24,160.31v105.5Z"/>
    <path class="cls-1" d="M1269.1,103.12h-88.6v256.43h-9.39V103.12h-88.6v-9.39h186.59v9.39Z"/>
    <path class="cls-1" d="M1321.66,222.14h137.41v10.14h-137.41v117.89h148.68v9.39h-158.06V93.74h158.06v9.39h-148.68v119.02Z"/>
  </g>
  <g>
    <path class="cls-1" d="M752.37,507.29l-37.84-50.24h-25.6v50.24h-3.81v-112.57h39.75c19.56,0,34.5,7.63,34.98,30.53,0,23.37-14.31,31.8-34.82,31.8h-6.04l38,50.24h-4.61ZM725.03,453.55c20.51,0,31.01-8.27,31.01-28.14s-13.04-27.35-31.01-27.03h-36.09v55.17h36.09Z"/>
    <path class="cls-1" d="M786.24,507.29h-3.97v-112.57h3.97v112.57Z"/>
    <path class="cls-1" d="M813.43,424.61c0-20.67,19.71-31.48,39.43-31.48,14.15,0,28.14,5.56,34.82,16.38l-3.66,2.39c-5.72-10.33-18.6-14.79-31.48-14.79-17.65,0-35.14,9.06-35.14,27.51v52.31c0,18.76,17.65,28.14,35.46,28.14s35.62-9.38,35.62-28.14v-21.31h-34.5v-3.82h38.48v25.12c0,21.31-19.88,31.96-39.59,31.96s-39.43-10.65-39.43-31.96v-52.31Z"/>
    <path class="cls-1" d="M920.6,507.29h-3.97v-112.57h3.97v54.38h71.07v-54.38h3.97v112.57h-3.97v-54.22h-71.07v54.22Z"/>
    <path class="cls-1" d="M1092.95,398.69h-37.52v108.59h-3.97v-108.59h-37.52v-3.97h79.02v3.97Z"/>
    <path class="cls-1" d="M1219.67,503.47v-108.75h3.98v112.57h-6.84l-65.98-107.48-.16,107.48h-4.13v-112.57h6.2l66.94,108.75Z"/>
    <path class="cls-1" d="M1250.68,424.93c0-21.15,20.83-31.8,41.82-31.8s41.97,10.65,41.97,31.8v51.99c0,21.15-20.99,31.96-41.97,31.96s-41.82-10.81-41.82-31.96v-51.99ZM1254.65,476.92c0,18.76,18.76,27.98,37.84,27.98s38-9.22,38-27.98v-51.99c0-19.72-19.24-27.98-38.16-27.98-18.92.16-37.68,8.59-37.68,27.98v51.99Z"/>
    <path class="cls-1" d="M1489.01,394.72l-32.91,112.57h-6.52l-30.05-91.9-30.21,91.9h-6.2l-33.39-112.57h4.29l31.96,107h.79l30.05-90.15h5.25l30.21,90.47h.96l31.48-107.32h4.29Z"/>
  </g>
</svg>